<?xml version="1.0" encoding="UTF-8" standalone="no"?>
<!-- Created with Inkscape (http://www.inkscape.org/) -->

<svg
   xmlns:dc="http://purl.org/dc/elements/1.1/"
   xmlns:cc="http://creativecommons.org/ns#"
   xmlns:rdf="http://www.w3.org/1999/02/22-rdf-syntax-ns#"
   xmlns:svg="http://www.w3.org/2000/svg"
   xmlns="http://www.w3.org/2000/svg"
   xmlns:sodipodi="http://sodipodi.sourceforge.net/DTD/sodipodi-0.dtd"
   xmlns:inkscape="http://www.inkscape.org/namespaces/inkscape"
   width="500"
   height="500"
   viewBox="0 0 132.29166 132.29167"
   version="1.1"
   id="svg8"
   inkscape:version="0.92.3 (2405546, 2018-03-11)"
   sodipodi:docname="cils-vibratiles.svg">
  <defs
     id="defs2" />
  <sodipodi:namedview
     id="base"
     pagecolor="#ffffff"
     bordercolor="#666666"
     borderopacity="1.0"
     inkscape:pageopacity="0.0"
     inkscape:pageshadow="2"
     inkscape:zoom="1.1935962"
     inkscape:cx="214.14251"
     inkscape:cy="233.46456"
     inkscape:document-units="px"
     inkscape:current-layer="layer1"
     showgrid="false"
     units="px"
     inkscape:pagecheckerboard="true"
     inkscape:window-width="1877"
     inkscape:window-height="1025"
     inkscape:window-x="0"
     inkscape:window-y="27"
     inkscape:window-maximized="1"
     inkscape:snap-global="false" />
  <metadata
     id="metadata5">
    <rdf:RDF>
      <cc:Work
         rdf:about="">
        <dc:format>image/svg+xml</dc:format>
        <dc:type
           rdf:resource="http://purl.org/dc/dcmitype/StillImage" />
        <dc:title></dc:title>
      </cc:Work>
    </rdf:RDF>
  </metadata>
  <g
     inkscape:label="Layer 1"
     inkscape:groupmode="layer"
     id="layer1"
     transform="translate(0,-164.70831)">
    <path
       style="fill:#fafafa;fill-opacity:1;stroke:none;stroke-width:0.26458332px;stroke-linecap:butt;stroke-linejoin:miter;stroke-opacity:1"
       d="m 68.052394,171.97864 c 40.606386,0.0602 59.028336,32.73311 58.742296,60.29398 -0.28604,27.56087 -20.55313,54.41784 -57.85562,56.96894 C 31.636585,291.79266 5.866099,260.2361 6.650071,231.82928 7.434043,203.42246 27.446008,171.91846 68.052394,171.97864 Z"
       id="path1008"
       inkscape:connector-curvature="0"
       sodipodi:nodetypes="zzzzz"
       inkscape:label="path1008" />
    <path
       style="fill:#e6e6e6;fill-opacity:1;stroke:#000000;stroke-width:0.2646167px;stroke-linecap:butt;stroke-linejoin:miter;stroke-opacity:1"
       d="m 65.723907,193.55872 c -6.091559,0.0467 -12.014887,1.26513 -16.665357,4.18865 -6.764318,4.2524 -14.301209,13.40513 -17.069444,22.38943 -2.768237,8.9843 -1.698242,20.46843 1.580513,28.29808 3.278752,7.82964 7.86562,12.98389 15.173222,16.79231 7.3076,3.80842 18.306366,5.18539 26.553016,3.42068 8.246649,-1.76474 15.066486,-6.407 20.230962,-12.43895 5.164491,-6.03197 8.746551,-13.89926 9.166881,-22.07837 0.42033,-8.17911 -1.14079,-16.66799 -7.270657,-24.25529 -6.129874,-7.5873 -14.640802,-14.38327 -23.391991,-15.70409 -2.734745,-0.41276 -5.538255,-0.63368 -8.307145,-0.61245 z m 0.335841,2.33631 c 2.609004,-0.02 5.250612,0.18827 7.827442,0.5772 8.245865,1.24456 16.265354,7.64781 22.041264,14.79699 5.775906,7.14919 7.246426,15.14824 6.850356,22.85505 -0.39606,7.70682 -3.771315,15.12005 -8.63758,20.80371 -4.86626,5.68365 -11.292427,10.0574 -19.062884,11.72023 -7.770459,1.66282 -18.134003,0.36538 -25.01964,-3.22313 -6.885634,-3.58851 -11.207369,-8.44489 -14.296795,-15.82242 -3.089426,-7.37754 -4.098066,-18.19855 -1.489679,-26.66406 2.608387,-8.46552 9.710787,-17.09006 16.084509,-21.0969 4.381935,-2.7547 9.963197,-3.90266 15.703007,-3.94667 z"
       id="path1062"
       inkscape:connector-curvature="0"
       inkscape:label="Cercle" />
    <path
       id="path1112"
       style="fill:#646464;fill-opacity:1;stroke:#000000;stroke-width:0.26458332px;stroke-linecap:butt;stroke-linejoin:miter;stroke-opacity:1"
       d="m 55.746111,189.33228 2.613953,-1.94759 3.404701,0.64009 -0.403008,2.31636 -2.527178,-0.47151 -1.98681,1.45215 z m -23.588484,19.48339 0.969964,-3.11208 3.130697,-1.48339 1.035484,2.11086 -2.321676,1.10398 -0.753811,2.34263 z m -7.773318,30.23284 -1.044521,-3.08786 1.660877,-3.04026 2.078457,1.09908 -1.229377,2.25778 0.76712,2.33831 z m 10.331481,29.24589 -2.660036,-1.88418 -0.443341,-3.43586 2.327531,-0.33251 0.332502,2.54919 1.995036,1.44083 z m 29.881872,8.67317 -3.259505,0.0392 -2.378218,-2.51908 1.687564,-1.6371 1.767377,1.8669 2.460914,-0.007 z m 27.866572,-8.84745 -2.61397,1.94758 -3.4047,-0.6401 0.40301,-2.31636 2.52717,0.47151 1.98683,-1.45212 z m 14.056716,-24.58179 -0.96998,3.11208 -3.13071,1.48338 -1.03548,-2.11086 2.32168,-1.10397 0.75384,-2.34262 z m 0.79074,-27.35115 1.04451,3.08787 -1.66089,3.04026 -2.07845,-1.09908 1.22938,-2.25778 -0.76709,-2.33832 z m -20.528263,-22.92832 2.660029,1.88419 0.443338,3.43587 -2.327524,0.33251 -0.332504,-2.5492 -1.995022,-1.44085 z"
       inkscape:connector-curvature="0"
       inkscape:label="Bras de dynéine interne" />
    <path
       inkscape:label="#Bras de dynéine interne"
       inkscape:connector-curvature="0"
       d="m 55.746111,189.33228 2.613953,-1.94759 3.404701,0.64009 -0.403008,2.31636 -2.527178,-0.47151 -1.98681,1.45215 z m -23.588484,19.48339 0.969964,-3.11208 3.130697,-1.48339 1.035484,2.11086 -2.321676,1.10398 -0.753811,2.34263 z m -7.773318,30.23284 -1.044521,-3.08786 1.660877,-3.04026 2.078457,1.09908 -1.229377,2.25778 0.76712,2.33831 z m 10.331481,29.24589 -2.660036,-1.88418 -0.443341,-3.43586 2.327531,-0.33251 0.332502,2.54919 1.995036,1.44083 z m 29.881872,8.67317 -3.259505,0.0392 -2.378218,-2.51908 1.687564,-1.6371 1.767377,1.8669 2.460914,-0.007 z m 27.866572,-8.84745 -2.61397,1.94758 -3.4047,-0.6401 0.40301,-2.31636 2.52717,0.47151 1.98683,-1.45212 z m 14.056716,-24.58179 -0.96998,3.11208 -3.13071,1.48338 -1.03548,-2.11086 2.32168,-1.10397 0.75384,-2.34262 z m 0.79074,-27.35115 1.04451,3.08787 -1.66089,3.04026 -2.07845,-1.09908 1.22938,-2.25778 -0.76709,-2.33832 z m -20.528263,-22.92832 2.660029,1.88419 0.443338,3.43587 -2.327524,0.33251 -0.332504,-2.5492 -1.995022,-1.44085 z"
       style="fill:#ffbf7f;fill-opacity:1;stroke:#ff7f00;stroke-width:0.26458332px;stroke-linecap:butt;stroke-linejoin:miter;stroke-opacity:1"
       id="path1115" />
    <path
       id="path1083"
       style="fill:#5a5a5a;fill-opacity:1;stroke:#000000;stroke-width:0.26458332px;stroke-linecap:butt;stroke-linejoin:miter;stroke-opacity:1"
       d="m 49.624314,185.54446 -2.456364,-4.99352 5.126498,-3.40369 2.917248,1.0644 -0.92875,2.32035 -1.686556,-0.548 -1.951224,1.52197 1.515473,3.40586 z m -26.24629,24.98682 -4.922359,-2.59603 2.146787,-5.76692 2.985741,-0.8536 0.612494,2.42311 -1.68656,0.54799 -0.683982,2.3782 3.22796,1.86463 z m -2.646604,35.17564 -5.508178,0.79306 -1.652927,-5.92739 1.913783,-2.44555 1.919785,1.60032 -1.042354,1.43467 0.844518,2.32604 3.707477,-0.38883 z m 16.322109,26.37639 -3.990057,3.87923 -4.821283,-3.8238 0.110829,-3.10338 2.493779,0.16626 1e-6,1.77336 2.050441,1.38541 2.770864,-2.49377 z m 32.121372,6.94303 -0.94787,5.48366 -6.148072,-0.25964 -1.734458,-2.57583 2.115234,-1.3313 1.042357,1.43468 2.473164,-0.0844 0.775879,-3.64617 z m 30.197181,-11.25417 2.456368,4.99351 -5.126508,3.4037 -2.91724,-1.0644 0.92874,-2.32035 1.68657,0.548 1.95123,-1.52196 -1.51547,-3.40587 z m 15.827848,-26.98184 4.92235,2.59602 -2.14678,5.76694 -2.98574,0.85359 -0.6125,-2.4231 1.68657,-0.548 0.68399,-2.3782 -3.22796,-1.86463 z m -6.88516,-30.52059 5.50816,-0.79306 1.65294,5.9274 -1.91378,2.44554 -1.91979,-1.60031 1.04236,-1.43468 -0.84451,-2.32605 -3.70748,0.38884 z m -23.637198,-24.1597 3.990043,-3.87921 4.821301,3.82379 -0.110834,3.10337 -2.493777,-0.16625 v -1.77336 l -2.050439,-1.38543 -2.770862,2.49378 z"
       inkscape:connector-curvature="0"
       inkscape:label="Bras de dynéine externe" />
    <path
       inkscape:label="#Bras de dynéine externe"
       inkscape:connector-curvature="0"
       d="m 49.624314,185.54446 -2.456364,-4.99352 5.126498,-3.40369 2.917248,1.0644 -0.92875,2.32035 -1.686556,-0.548 -1.951224,1.52197 1.515473,3.40586 z m -26.24629,24.98682 -4.922359,-2.59603 2.146787,-5.76692 2.985741,-0.8536 0.612494,2.42311 -1.68656,0.54799 -0.683982,2.3782 3.22796,1.86463 z m -2.646604,35.17564 -5.508178,0.79306 -1.652927,-5.92739 1.913783,-2.44555 1.919785,1.60032 -1.042354,1.43467 0.844518,2.32604 3.707477,-0.38883 z m 16.322109,26.37639 -3.990057,3.87923 -4.821283,-3.8238 0.110829,-3.10338 2.493779,0.16626 1e-6,1.77336 2.050441,1.38541 2.770864,-2.49377 z m 32.121372,6.94303 -0.94787,5.48366 -6.148072,-0.25964 -1.734458,-2.57583 2.115234,-1.3313 1.042357,1.43468 2.473164,-0.0844 0.775879,-3.64617 z m 30.197181,-11.25417 2.456368,4.99351 -5.126508,3.4037 -2.91724,-1.0644 0.92874,-2.32035 1.68657,0.548 1.95123,-1.52196 -1.51547,-3.40587 z m 15.827848,-26.98184 4.92235,2.59602 -2.14678,5.76694 -2.98574,0.85359 -0.6125,-2.4231 1.68657,-0.548 0.68399,-2.3782 -3.22796,-1.86463 z m -6.88516,-30.52059 5.50816,-0.79306 1.65294,5.9274 -1.91378,2.44554 -1.91979,-1.60031 1.04236,-1.43468 -0.84451,-2.32605 -3.70748,0.38884 z m -23.637198,-24.1597 3.990043,-3.87921 4.821301,3.82379 -0.110834,3.10337 -2.493777,-0.16625 v -1.77336 l -2.050439,-1.38543 -2.770862,2.49378 z"
       style="fill:#ffbf7f;fill-opacity:1;stroke:#ff7f00;stroke-width:0.26458332px;stroke-linecap:butt;stroke-linejoin:miter;stroke-opacity:1"
       id="path1086" />
    <path
       id="path1039"
       style="display:inline;fill:#c8c8c8;fill-opacity:1;stroke:#000000;stroke-width:0.26458332px;stroke-linecap:butt;stroke-linejoin:miter;stroke-opacity:1"
       d="m 60.293977,213.54158 -8.534257,-16.73601 -3.214201,1.99502 9.975107,15.406 z m -13.410975,10.64012 -14.74099,-4.87672 -1.330016,2.77086 15.516833,3.65754 z m 9.199263,21.05856 -10.307608,17.29018 2.770862,1.55168 8.977596,-17.51185 z m 14.519323,1.33001 1.440849,19.95021 2.660028,-0.3325 -2.43836,-19.61771 z m 11.970128,-5.32006 11.970128,11.63763 -2.43836,2.43836 -10.750947,-12.74597 z m 3.768373,-9.86427 15.960171,0.99751 -0.22167,2.54919 -15.849335,-1.77335 z m -5.098386,-12.96764 12.745969,-9.08843 1.662517,2.8817 -13.189307,7.86925 z m -10.307611,-5.20922 2.881696,-19.06354 2.881699,0.66501 -4.100877,18.9527 z M 47.548008,237.371 33.13952,247.90028 l 2.327526,2.8817 12.856805,-11.97013 z"
       inkscape:connector-curvature="0"
       inkscape:label="Pont radiaire" />
    <path
       inkscape:label="#Pont radiaire"
       inkscape:connector-curvature="0"
       d="m 60.293977,213.54158 -8.534257,-16.73601 -3.214201,1.99502 9.975107,15.406 z m -13.410975,10.64012 -14.74099,-4.87672 -1.330016,2.77086 15.516833,3.65754 z m 9.199263,21.05856 -10.307608,17.29018 2.770862,1.55168 8.977596,-17.51185 z m 14.519323,1.33001 1.440849,19.95021 2.660028,-0.3325 -2.43836,-19.61771 z m 11.970128,-5.32006 11.970128,11.63763 -2.43836,2.43836 -10.750947,-12.74597 z m 3.768373,-9.86427 15.960171,0.99751 -0.22167,2.54919 -15.849335,-1.77335 z m -5.098386,-12.96764 12.745969,-9.08843 1.662517,2.8817 -13.189307,7.86925 z m -10.307611,-5.20922 2.881696,-19.06354 2.881699,0.66501 -4.100877,18.9527 z M 47.548008,237.371 33.13952,247.90028 l 2.327526,2.8817 12.856805,-11.97013 z"
       style="display:inline;fill:#ffbf7f;fill-opacity:1;stroke:#ff7f00;stroke-width:0.26458332px;stroke-linecap:butt;stroke-linejoin:miter;stroke-opacity:1"
       id="path1043" />
    <path
       style="display:inline;opacity:1;fill:#c8c8c8;fill-opacity:1;stroke:#000000;stroke-width:0.99999994;stroke-miterlimit:4;stroke-dasharray:none;stroke-dashoffset:0;stroke-opacity:1"
       d="M 252.96289,21.3125 A 232.83418,227.50242 0 0 0 20.128906,248.81445 232.83418,227.50242 0 0 0 252.96289,476.31836 232.83418,227.50242 0 0 0 485.79688,248.81445 232.83418,227.50242 0 0 0 252.96289,21.3125 Z m -0.59375,10.642578 A 222.78467,217.68304 0 0 1 475.1543,249.63867 222.78467,217.68304 0 0 1 252.36914,467.32031 222.78467,217.68304 0 0 1 29.585938,249.63867 222.78467,217.68304 0 0 1 252.36914,31.955078 Z"
       transform="matrix(0.26458333,0,0,0.26458333,0,164.70831)"
       id="path880"
       inkscape:connector-curvature="0"
       inkscape:label="Membrane plasmique" />
    <path
       inkscape:label="#Membrane plasmique"
       inkscape:connector-curvature="0"
       id="path885"
       transform="matrix(0.26458333,0,0,0.26458333,0,164.70831)"
       d="M 252.96289,21.3125 A 232.83418,227.50242 0 0 0 20.128906,248.81445 232.83418,227.50242 0 0 0 252.96289,476.31836 232.83418,227.50242 0 0 0 485.79688,248.81445 232.83418,227.50242 0 0 0 252.96289,21.3125 Z m -0.59375,10.642578 A 222.78467,217.68304 0 0 1 475.1543,249.63867 222.78467,217.68304 0 0 1 252.36914,467.32031 222.78467,217.68304 0 0 1 29.585938,249.63867 222.78467,217.68304 0 0 1 252.36914,31.955078 Z"
       style="display:inline;opacity:1;fill:#ffbf7f;fill-opacity:1;stroke:#ff7f00;stroke-width:0.99999994;stroke-miterlimit:4;stroke-dasharray:none;stroke-dashoffset:0;stroke-opacity:1" />
    <path
       id="use957"
       style="display:inline;fill:#969696;fill-opacity:1;stroke:#000000;stroke-width:0.26458332px;stroke-linecap:butt;stroke-linejoin:miter;stroke-opacity:1"
       d="m 37.972405,189.72865 c -3.17473,2.4661 -3.839576,8.48112 -2.429579,11.572 1.67111,3.66327 8.442393,7.58716 11.70598,5.44491 3.263587,-2.14226 2.863513,-7.33234 1.480076,-10.76272 -1.383439,-3.43038 -3.849326,-8.32012 -8.731392,-7.21833 -0.762827,0.17215 -1.437175,0.50745 -2.025085,0.96414 z m 2.025534,3.18617 c 0.345265,-0.26815 0.740861,-0.46497 1.188814,-0.56606 2.866908,-0.64701 4.31546,2.22396 5.127866,4.23839 0.812395,2.01443 1.047131,5.06237 -0.869344,6.32038 -1.916485,1.25799 -5.892676,-1.04598 -6.874005,-3.19716 -0.827992,-1.81506 -0.437629,-5.34737 1.426669,-6.79555 z m -23.017391,27.42813 c -1.118872,3.86118 1.878799,9.11822 4.836285,10.79002 3.505171,1.98139 11.289656,1.17582 12.670769,-2.47559 1.381113,-3.6514 -1.993206,-7.61511 -5.128757,-9.57718 -3.135552,-1.96207 -8.004617,-4.46855 -11.306676,-0.70757 -0.515948,0.58765 -0.864424,1.25529 -1.071621,1.97032 z m 3.511479,1.38709 c 0.121708,-0.41988 0.326067,-0.81163 0.629045,-1.15673 1.939078,-2.20856 4.798495,-0.73733 6.639798,0.41486 1.841293,1.15219 3.822733,3.48005 3.011707,5.62427 -0.811036,2.14423 -5.382084,2.61742 -7.440426,1.45389 -1.736728,-0.98174 -3.497158,-4.06889 -2.840124,-6.33629 z m 0.217267,34.9412 c 1.364359,3.78142 6.879538,6.27247 10.254852,5.88662 4.000377,-0.45731 9.824655,-5.68463 8.795756,-9.45048 -1.028899,-3.76585 -6.088588,-4.98918 -9.778578,-4.7335 -3.689991,0.25568 -9.102418,1.08987 -9.563195,6.07346 -0.072,0.77869 0.03851,1.52365 0.291165,2.2239 z m 3.656159,-0.94181 c -0.148338,-0.41123 -0.213272,-0.84828 -0.170998,-1.30555 0.270588,-2.92653 3.448668,-3.41701 5.615554,-3.56716 2.166879,-0.15014 5.13818,0.56848 5.742388,2.7799 0.604201,2.21143 -2.815718,5.28104 -5.164857,5.54959 -1.982093,0.22658 -5.220892,-1.23622 -6.022087,-3.45678 z m 20.539483,22.50097 c 3.32645,2.25728 9.252526,1.03084 11.756414,-1.26528 2.967574,-2.72133 4.60697,-10.37375 1.561063,-12.81561 -3.045907,-2.44187 -7.858336,-0.45755 -10.693316,1.91822 -2.834978,2.37578 -6.723403,6.23199 -4.166897,10.53464 0.399458,0.67229 0.92673,1.21002 1.542736,1.62803 z m 2.40431,-2.91098 c -0.361723,-0.2455 -0.67115,-0.56092 -0.905725,-0.9557 -1.501259,-2.52666 0.781567,-4.79149 2.446359,-6.18663 1.66479,-1.39513 4.491016,-2.56024 6.279672,-1.12631 1.788653,1.43395 0.826155,5.92749 -0.916489,7.52554 -1.470366,1.34836 -4.950422,2.06864 -6.903817,0.7431 z m 30.959461,7.5172 c 4.01795,-0.12906 8.091364,-4.60453 8.767426,-7.93388 0.801259,-3.9459 -2.370422,-11.10045 -6.269903,-11.28562 -3.899482,-0.18517 -6.626468,4.24885 -7.52357,7.83725 -0.897101,3.5884 -1.776278,8.9937 2.821013,10.97194 0.718331,0.3091 1.460973,0.43421 2.205034,0.41031 z m 0.234097,-3.76825 c -0.436943,0.014 -0.872671,-0.0593 -1.294497,-0.24081 -2.699675,-1.16169 -2.184066,-4.33579 -1.657262,-6.44302 0.526809,-2.10722 2.128438,-4.71103 4.418335,-4.6023 2.289901,0.10874 4.152466,4.30984 3.681947,6.62699 -0.397009,1.9551 -2.789059,4.58335 -5.148523,4.65914 z m 32.149426,-20.08311 c 1.11888,-3.86117 -1.8788,-9.11822 -4.83628,-10.79002 -3.50517,-1.98139 -11.289657,-1.17582 -12.67077,2.47559 -1.381113,3.6514 1.993206,7.61511 5.128757,9.57718 3.135553,1.96207 8.004613,4.46855 11.306673,0.70757 0.51595,-0.58765 0.86443,-1.25529 1.07162,-1.97032 z m -3.51147,-1.38709 c -0.12171,0.41989 -0.32607,0.81164 -0.62905,1.15673 -1.93908,2.20856 -4.7985,0.73734 -6.639799,-0.41486 -1.841292,-1.15219 -3.822732,-3.48005 -3.011706,-5.62427 0.811036,-2.14422 5.382085,-2.61742 7.440425,-1.45389 1.73673,0.98174 3.49716,4.06889 2.84013,6.33629 z m 11.30909,-29.91131 c -1.36436,-3.78142 -6.87954,-6.27247 -10.25485,-5.88661 -4.00038,0.4573 -9.824657,5.68463 -8.795758,9.45048 1.028898,3.76585 6.088588,4.98918 9.778578,4.73349 3.68999,-0.25568 9.10242,-1.08986 9.56319,-6.07345 0.072,-0.7787 -0.0385,-1.52365 -0.29116,-2.22391 z m -3.65616,0.94181 c 0.14834,0.41124 0.21327,0.84829 0.171,1.30556 -0.27059,2.92652 -3.44867,3.417 -5.61556,3.56715 -2.16687,0.15014 -5.13817,-0.56848 -5.74238,-2.7799 -0.6042,-2.21142 2.81572,-5.28104 5.16485,-5.54959 1.9821,-0.22658 5.2209,1.23622 6.02209,3.45678 z m -11.43526,-33.22381 c -3.32645,-2.25728 -9.252526,-1.03084 -11.756415,1.26528 -2.967574,2.72134 -4.606969,10.37376 -1.561063,12.81562 3.045907,2.44186 7.858337,0.45755 10.693318,-1.91823 2.83498,-2.37577 6.7234,-6.23198 4.1669,-10.53463 -0.39946,-0.67229 -0.92673,-1.21002 -1.54274,-1.62804 z m -2.40431,2.91098 c 0.36172,0.24551 0.67115,0.56092 0.90572,0.95571 1.50126,2.52665 -0.78156,4.79149 -2.446354,6.18663 -1.66479,1.39512 -4.491017,2.56023 -6.279672,1.1263 -1.788653,-1.43394 -0.826156,-5.92749 0.916489,-7.52554 1.470366,-1.34835 4.950422,-2.06864 6.903817,-0.7431 z M 70.929947,178.3681 c -4.01795,0.12906 -8.091364,4.60453 -8.767426,7.93388 -0.801259,3.9459 2.370422,11.10045 6.269903,11.28562 3.899482,0.18517 6.626468,-4.24885 7.52357,-7.83725 0.897101,-3.5884 1.776278,-8.9937 -2.821013,-10.97194 -0.718331,-0.3091 -1.460973,-0.43421 -2.205034,-0.41031 z m -0.234097,3.76825 c 0.436943,-0.014 0.872671,0.0593 1.294497,0.24081 2.699675,1.16169 2.184066,4.33579 1.657262,6.44302 -0.526809,2.10722 -2.128438,4.71103 -4.418335,4.6023 -2.289901,-0.10874 -4.152466,-4.30984 -3.681947,-6.62699 0.397009,-1.9551 2.789059,-4.58335 5.148523,-4.65914 z"
       inkscape:connector-curvature="0"
       inkscape:label="Tubule B" />
    <path
       inkscape:label="#Tubule B"
       inkscape:connector-curvature="0"
       d="m 37.972405,189.72865 c -3.17473,2.4661 -3.839576,8.48112 -2.429579,11.572 1.67111,3.66327 8.442393,7.58716 11.70598,5.44491 3.263587,-2.14226 2.863513,-7.33234 1.480076,-10.76272 -1.383439,-3.43038 -3.849326,-8.32012 -8.731392,-7.21833 -0.762827,0.17215 -1.437175,0.50745 -2.025085,0.96414 z m 2.025534,3.18617 c 0.345265,-0.26815 0.740861,-0.46497 1.188814,-0.56606 2.866908,-0.64701 4.31546,2.22396 5.127866,4.23839 0.812395,2.01443 1.047131,5.06237 -0.869344,6.32038 -1.916485,1.25799 -5.892676,-1.04598 -6.874005,-3.19716 -0.827992,-1.81506 -0.437629,-5.34737 1.426669,-6.79555 z m -23.017391,27.42813 c -1.118872,3.86118 1.878799,9.11822 4.836285,10.79002 3.505171,1.98139 11.289656,1.17582 12.670769,-2.47559 1.381113,-3.6514 -1.993206,-7.61511 -5.128757,-9.57718 -3.135552,-1.96207 -8.004617,-4.46855 -11.306676,-0.70757 -0.515948,0.58765 -0.864424,1.25529 -1.071621,1.97032 z m 3.511479,1.38709 c 0.121708,-0.41988 0.326067,-0.81163 0.629045,-1.15673 1.939078,-2.20856 4.798495,-0.73733 6.639798,0.41486 1.841293,1.15219 3.822733,3.48005 3.011707,5.62427 -0.811036,2.14423 -5.382084,2.61742 -7.440426,1.45389 -1.736728,-0.98174 -3.497158,-4.06889 -2.840124,-6.33629 z m 0.217267,34.9412 c 1.364359,3.78142 6.879538,6.27247 10.254852,5.88662 4.000377,-0.45731 9.824655,-5.68463 8.795756,-9.45048 -1.028899,-3.76585 -6.088588,-4.98918 -9.778578,-4.7335 -3.689991,0.25568 -9.102418,1.08987 -9.563195,6.07346 -0.072,0.77869 0.03851,1.52365 0.291165,2.2239 z m 3.656159,-0.94181 c -0.148338,-0.41123 -0.213272,-0.84828 -0.170998,-1.30555 0.270588,-2.92653 3.448668,-3.41701 5.615554,-3.56716 2.166879,-0.15014 5.13818,0.56848 5.742388,2.7799 0.604201,2.21143 -2.815718,5.28104 -5.164857,5.54959 -1.982093,0.22658 -5.220892,-1.23622 -6.022087,-3.45678 z m 20.539483,22.50097 c 3.32645,2.25728 9.252526,1.03084 11.756414,-1.26528 2.967574,-2.72133 4.60697,-10.37375 1.561063,-12.81561 -3.045907,-2.44187 -7.858336,-0.45755 -10.693316,1.91822 -2.834978,2.37578 -6.723403,6.23199 -4.166897,10.53464 0.399458,0.67229 0.92673,1.21002 1.542736,1.62803 z m 2.40431,-2.91098 c -0.361723,-0.2455 -0.67115,-0.56092 -0.905725,-0.9557 -1.501259,-2.52666 0.781567,-4.79149 2.446359,-6.18663 1.66479,-1.39513 4.491016,-2.56024 6.279672,-1.12631 1.788653,1.43395 0.826155,5.92749 -0.916489,7.52554 -1.470366,1.34836 -4.950422,2.06864 -6.903817,0.7431 z m 30.959461,7.5172 c 4.01795,-0.12906 8.091364,-4.60453 8.767426,-7.93388 0.801259,-3.9459 -2.370422,-11.10045 -6.269903,-11.28562 -3.899482,-0.18517 -6.626468,4.24885 -7.52357,7.83725 -0.897101,3.5884 -1.776278,8.9937 2.821013,10.97194 0.718331,0.3091 1.460973,0.43421 2.205034,0.41031 z m 0.234097,-3.76825 c -0.436943,0.014 -0.872671,-0.0593 -1.294497,-0.24081 -2.699675,-1.16169 -2.184066,-4.33579 -1.657262,-6.44302 0.526809,-2.10722 2.128438,-4.71103 4.418335,-4.6023 2.289901,0.10874 4.152466,4.30984 3.681947,6.62699 -0.397009,1.9551 -2.789059,4.58335 -5.148523,4.65914 z m 32.149426,-20.08311 c 1.11888,-3.86117 -1.8788,-9.11822 -4.83628,-10.79002 -3.50517,-1.98139 -11.289657,-1.17582 -12.67077,2.47559 -1.381113,3.6514 1.993206,7.61511 5.128757,9.57718 3.135553,1.96207 8.004613,4.46855 11.306673,0.70757 0.51595,-0.58765 0.86443,-1.25529 1.07162,-1.97032 z m -3.51147,-1.38709 c -0.12171,0.41989 -0.32607,0.81164 -0.62905,1.15673 -1.93908,2.20856 -4.7985,0.73734 -6.639799,-0.41486 -1.841292,-1.15219 -3.822732,-3.48005 -3.011706,-5.62427 0.811036,-2.14422 5.382085,-2.61742 7.440425,-1.45389 1.73673,0.98174 3.49716,4.06889 2.84013,6.33629 z m 11.30909,-29.91131 c -1.36436,-3.78142 -6.87954,-6.27247 -10.25485,-5.88661 -4.00038,0.4573 -9.824657,5.68463 -8.795758,9.45048 1.028898,3.76585 6.088588,4.98918 9.778578,4.73349 3.68999,-0.25568 9.10242,-1.08986 9.56319,-6.07345 0.072,-0.7787 -0.0385,-1.52365 -0.29116,-2.22391 z m -3.65616,0.94181 c 0.14834,0.41124 0.21327,0.84829 0.171,1.30556 -0.27059,2.92652 -3.44867,3.417 -5.61556,3.56715 -2.16687,0.15014 -5.13817,-0.56848 -5.74238,-2.7799 -0.6042,-2.21142 2.81572,-5.28104 5.16485,-5.54959 1.9821,-0.22658 5.2209,1.23622 6.02209,3.45678 z m -11.43526,-33.22381 c -3.32645,-2.25728 -9.252526,-1.03084 -11.756415,1.26528 -2.967574,2.72134 -4.606969,10.37376 -1.561063,12.81562 3.045907,2.44186 7.858337,0.45755 10.693318,-1.91823 2.83498,-2.37577 6.7234,-6.23198 4.1669,-10.53463 -0.39946,-0.67229 -0.92673,-1.21002 -1.54274,-1.62804 z m -2.40431,2.91098 c 0.36172,0.24551 0.67115,0.56092 0.90572,0.95571 1.50126,2.52665 -0.78156,4.79149 -2.446354,6.18663 -1.66479,1.39512 -4.491017,2.56023 -6.279672,1.1263 -1.788653,-1.43394 -0.826156,-5.92749 0.916489,-7.52554 1.470366,-1.34835 4.950422,-2.06864 6.903817,-0.7431 z M 70.929947,178.3681 c -4.01795,0.12906 -8.091364,4.60453 -8.767426,7.93388 -0.801259,3.9459 2.370422,11.10045 6.269903,11.28562 3.899482,0.18517 6.626468,-4.24885 7.52357,-7.83725 0.897101,-3.5884 1.776278,-8.9937 -2.821013,-10.97194 -0.718331,-0.3091 -1.460973,-0.43421 -2.205034,-0.41031 z m -0.234097,3.76825 c 0.436943,-0.014 0.872671,0.0593 1.294497,0.24081 2.699675,1.16169 2.184066,4.33579 1.657262,6.44302 -0.526809,2.10722 -2.128438,4.71103 -4.418335,4.6023 -2.289901,-0.10874 -4.152466,-4.30984 -3.681947,-6.62699 0.397009,-1.9551 2.789059,-4.58335 5.148523,-4.65914 z"
       style="display:inline;fill:#ffbf7f;fill-opacity:1;stroke:#ff7f00;stroke-width:0.26458332px;stroke-linecap:butt;stroke-linejoin:miter;stroke-opacity:1"
       id="path978" />
    <path
       id="path999"
       style="display:inline;fill:#b4b4b4;fill-opacity:1;stroke:#000000;stroke-width:0.26458332px;stroke-linecap:butt;stroke-linejoin:miter;stroke-opacity:1"
       d="m 42.804491,189.04925 c -1.071756,3.60921 1.288303,8.92378 4.786431,10.20601 3.679942,1.34888 9.294499,-1.42531 10.580916,-5.12755 1.252142,-3.60356 -1.386288,-9.03622 -4.985053,-10.30207 -3.574724,-1.25739 -8.950276,1.32693 -10.267896,4.87989 -0.04184,0.11265 -0.08014,0.22721 -0.114794,0.3436 z m 3.221627,0.83431 c 0.724362,-1.95333 3.679261,-3.37415 5.644586,-2.6829 1.978506,0.69595 3.429304,3.68229 2.740892,5.66344 -0.707191,2.03541 -3.793969,3.56077 -5.817097,2.81919 -1.985227,-0.72767 -3.303599,-3.81728 -2.568381,-5.79973 z m -24.716255,27.65652 c 1.254369,3.54987 6.287523,6.46224 9.871245,5.44344 3.769987,-1.07175 6.681631,-6.61627 5.546244,-10.36758 -1.105114,-3.65133 -6.432891,-6.49562 -10.088398,-5.40441 -3.631089,1.08392 -6.460975,6.33435 -5.438577,9.98323 0.03237,0.11573 0.06872,0.23092 0.109091,0.34545 z m 3.096742,-1.21866 c -0.562113,-2.00604 0.993309,-4.89236 2.989601,-5.48831 2.009715,-0.5999 4.93876,0.96334 5.546313,2.97076 0.624256,2.06236 -0.97642,5.11076 -3.04905,5.69998 -2.033796,0.57819 -4.91641,-1.14644 -5.486864,-3.18243 z m -1.093852,35.66131 c 3.10137,2.13461 8.885123,1.53235 11.185583,-1.39833 2.420023,-3.08301 1.516607,-9.28004 -1.606906,-11.64755 -3.040255,-2.30442 -9.022349,-1.47391 -11.338319,1.55755 -2.300501,3.01121 -1.503803,8.92226 1.468095,11.27332 0.09421,0.0746 0.191327,0.14642 0.291306,0.21535 z m 1.789011,-2.80613 c -1.633881,-1.29252 -2.072057,-4.54186 -0.807311,-6.19738 1.273282,-1.66661 4.561779,-2.12357 6.233227,-0.85665 1.717262,1.30156 2.214092,4.70862 0.883633,6.40357 -1.305524,1.6632 -4.651322,1.9623 -6.309549,0.65046 z m 17.696021,26.62476 c 3.763756,-0.096 8.088906,-3.98285 8.227412,-7.70599 0.145693,-3.91666 -4.22771,-8.39915 -8.146272,-8.47855 -3.814124,-0.0773 -8.165581,4.11078 -8.257389,7.92458 -0.0912,3.78832 4.027768,8.10217 7.814003,8.25738 0.120078,0.005 0.240853,0.006 0.362253,0.003 z m -0.20206,-3.32176 c -2.081562,-0.0853 -4.34597,-2.45652 -4.295857,-4.53926 0.0505,-2.09673 2.442354,-4.39935 4.539263,-4.35684 2.154329,0.0436 4.558893,2.50794 4.478797,4.66121 -0.07859,2.11292 -2.609589,4.32151 -4.722203,4.23489 z m 32.207086,6.02166 c 2.988512,-2.28995 4.203004,-7.97673 2.126647,-11.07023 -2.184286,-3.25428 -8.357186,-4.31007 -11.574037,-2.07103 -3.131126,2.17935 -4.189837,8.1253 -2.022418,11.26469 2.15294,3.11842 8.020868,4.18733 11.175231,2.08741 0.100037,-0.0666 0.198422,-0.13666 0.294832,-0.2105 z m -2.11595,-2.56859 c -1.734159,1.1545 -4.95987,0.56713 -6.143534,-1.1473 -1.191572,-1.72597 -0.609968,-4.99473 1.111454,-6.19287 1.768517,-1.23101 5.162355,-0.65068 6.363216,1.13843 1.178359,1.75558 0.428916,5.03005 -1.331136,6.20174 z m 30.609249,-11.98779 c 1.07176,-3.60921 -1.2883,-8.92377 -4.78642,-10.20601 -3.679945,-1.34888 -9.294502,1.42531 -10.580913,5.12755 -1.252145,3.60356 1.386282,9.03623 4.985046,10.30207 3.574727,1.25739 8.950267,-1.32693 10.267897,-4.87989 0.0418,-0.11266 0.0802,-0.22719 0.1148,-0.34359 z m -3.22162,-0.83431 c -0.724361,1.95333 -3.679266,3.37416 -5.644584,2.6829 -1.978502,-0.69595 -3.429303,-3.68229 -2.740898,-5.66344 0.707196,-2.03541 3.793978,-3.56076 5.817106,-2.81919 1.985216,0.72767 3.303586,3.81728 2.568376,5.79973 z m 16.09535,-27.65651 c -1.25437,-3.54988 -6.28752,-6.46224 -9.87124,-5.44345 -3.76999,1.07175 -6.681634,6.61627 -5.54624,10.36758 1.10511,3.65133 6.43289,6.49563 10.08839,5.40441 3.63109,-1.08392 6.46097,-6.33434 5.43858,-9.98323 -0.0324,-0.11572 -0.0687,-0.23091 -0.10909,-0.34545 z m -3.09674,1.21865 c 0.56211,2.00604 -0.99331,4.89237 -2.9896,5.48831 -2.00971,0.5999 -4.93876,-0.96334 -5.54632,-2.97076 -0.62425,-2.06236 0.97643,-5.11076 3.04906,-5.69998 2.03379,-0.57818 4.9164,1.14645 5.48686,3.18243 z M 106.8,204.45976 c -3.10137,-2.13461 -8.885123,-1.53235 -11.18558,1.39833 -2.420033,3.08301 -1.516613,9.28004 1.606908,11.64755 3.040252,2.30442 9.022352,1.47392 11.338312,-1.55755 2.3005,-3.01121 1.5038,-8.92225 -1.46809,-11.27332 -0.0942,-0.0746 -0.19132,-0.14642 -0.29131,-0.21535 z m -1.78901,2.80613 c 1.63388,1.29252 2.07206,4.54187 0.80731,6.19738 -1.27328,1.66661 -4.56178,2.12357 -6.233226,0.85665 -1.717265,-1.30156 -2.214095,-4.70862 -0.883632,-6.40357 1.305528,-1.66319 4.651318,-1.96229 6.309548,-0.65046 z M 80.103638,182.72685 c -3.763751,0.096 -8.088905,3.98285 -8.227407,7.70599 -0.145698,3.91667 4.227703,8.39915 8.146275,8.47855 3.814117,0.0773 8.165586,-4.11078 8.257376,-7.92458 0.09117,-3.78832 -4.02776,-8.10216 -7.813993,-8.25738 -0.120083,-0.005 -0.240842,-0.006 -0.362251,-0.003 z m 0.202054,3.32176 c 2.081578,0.0853 4.345985,2.45653 4.295862,4.53926 -0.05047,2.09673 -2.442347,4.39935 -4.539257,4.35684 -2.154336,-0.0436 -4.558898,-2.50794 -4.478798,-4.66122 0.0786,-2.11292 2.609582,-4.32149 4.722193,-4.23488 z"
       inkscape:connector-curvature="0"
       inkscape:label="Tubule A" />
    <path
       inkscape:label="#Tubule A"
       inkscape:connector-curvature="0"
       d="m 42.804491,189.04925 c -1.071756,3.60921 1.288303,8.92378 4.786431,10.20601 3.679942,1.34888 9.294499,-1.42531 10.580916,-5.12755 1.252142,-3.60356 -1.386288,-9.03622 -4.985053,-10.30207 -3.574724,-1.25739 -8.950276,1.32693 -10.267896,4.87989 -0.04184,0.11265 -0.08014,0.22721 -0.114794,0.3436 z m 3.221627,0.83431 c 0.724362,-1.95333 3.679261,-3.37415 5.644586,-2.6829 1.978506,0.69595 3.429304,3.68229 2.740892,5.66344 -0.707191,2.03541 -3.793969,3.56077 -5.817097,2.81919 -1.985227,-0.72767 -3.303599,-3.81728 -2.568381,-5.79973 z m -24.716255,27.65652 c 1.254369,3.54987 6.287523,6.46224 9.871245,5.44344 3.769987,-1.07175 6.681631,-6.61627 5.546244,-10.36758 -1.105114,-3.65133 -6.432891,-6.49562 -10.088398,-5.40441 -3.631089,1.08392 -6.460975,6.33435 -5.438577,9.98323 0.03237,0.11573 0.06872,0.23092 0.109091,0.34545 z m 3.096742,-1.21866 c -0.562113,-2.00604 0.993309,-4.89236 2.989601,-5.48831 2.009715,-0.5999 4.93876,0.96334 5.546313,2.97076 0.624256,2.06236 -0.97642,5.11076 -3.04905,5.69998 -2.033796,0.57819 -4.91641,-1.14644 -5.486864,-3.18243 z m -1.093852,35.66131 c 3.10137,2.13461 8.885123,1.53235 11.185583,-1.39833 2.420023,-3.08301 1.516607,-9.28004 -1.606906,-11.64755 -3.040255,-2.30442 -9.022349,-1.47391 -11.338319,1.55755 -2.300501,3.01121 -1.503803,8.92226 1.468095,11.27332 0.09421,0.0746 0.191327,0.14642 0.291306,0.21535 z m 1.789011,-2.80613 c -1.633881,-1.29252 -2.072057,-4.54186 -0.807311,-6.19738 1.273282,-1.66661 4.561779,-2.12357 6.233227,-0.85665 1.717262,1.30156 2.214092,4.70862 0.883633,6.40357 -1.305524,1.6632 -4.651322,1.9623 -6.309549,0.65046 z m 17.696021,26.62476 c 3.763756,-0.096 8.088906,-3.98285 8.227412,-7.70599 0.145693,-3.91666 -4.22771,-8.39915 -8.146272,-8.47855 -3.814124,-0.0773 -8.165581,4.11078 -8.257389,7.92458 -0.0912,3.78832 4.027768,8.10217 7.814003,8.25738 0.120078,0.005 0.240853,0.006 0.362253,0.003 z m -0.20206,-3.32176 c -2.081562,-0.0853 -4.34597,-2.45652 -4.295857,-4.53926 0.0505,-2.09673 2.442354,-4.39935 4.539263,-4.35684 2.154329,0.0436 4.558893,2.50794 4.478797,4.66121 -0.07859,2.11292 -2.609589,4.32151 -4.722203,4.23489 z m 32.207086,6.02166 c 2.988512,-2.28995 4.203004,-7.97673 2.126647,-11.07023 -2.184286,-3.25428 -8.357186,-4.31007 -11.574037,-2.07103 -3.131126,2.17935 -4.189837,8.1253 -2.022418,11.26469 2.15294,3.11842 8.020868,4.18733 11.175231,2.08741 0.100037,-0.0666 0.198422,-0.13666 0.294832,-0.2105 z m -2.11595,-2.56859 c -1.734159,1.1545 -4.95987,0.56713 -6.143534,-1.1473 -1.191572,-1.72597 -0.609968,-4.99473 1.111454,-6.19287 1.768517,-1.23101 5.162355,-0.65068 6.363216,1.13843 1.178359,1.75558 0.428916,5.03005 -1.331136,6.20174 z m 30.609249,-11.98779 c 1.07176,-3.60921 -1.2883,-8.92377 -4.78642,-10.20601 -3.679945,-1.34888 -9.294502,1.42531 -10.580913,5.12755 -1.252145,3.60356 1.386282,9.03623 4.985046,10.30207 3.574727,1.25739 8.950267,-1.32693 10.267897,-4.87989 0.0418,-0.11266 0.0802,-0.22719 0.1148,-0.34359 z m -3.22162,-0.83431 c -0.724361,1.95333 -3.679266,3.37416 -5.644584,2.6829 -1.978502,-0.69595 -3.429303,-3.68229 -2.740898,-5.66344 0.707196,-2.03541 3.793978,-3.56076 5.817106,-2.81919 1.985216,0.72767 3.303586,3.81728 2.568376,5.79973 z m 16.09535,-27.65651 c -1.25437,-3.54988 -6.28752,-6.46224 -9.87124,-5.44345 -3.76999,1.07175 -6.681634,6.61627 -5.54624,10.36758 1.10511,3.65133 6.43289,6.49563 10.08839,5.40441 3.63109,-1.08392 6.46097,-6.33434 5.43858,-9.98323 -0.0324,-0.11572 -0.0687,-0.23091 -0.10909,-0.34545 z m -3.09674,1.21865 c 0.56211,2.00604 -0.99331,4.89237 -2.9896,5.48831 -2.00971,0.5999 -4.93876,-0.96334 -5.54632,-2.97076 -0.62425,-2.06236 0.97643,-5.11076 3.04906,-5.69998 2.03379,-0.57818 4.9164,1.14645 5.48686,3.18243 z M 106.8,204.45976 c -3.10137,-2.13461 -8.885123,-1.53235 -11.18558,1.39833 -2.420033,3.08301 -1.516613,9.28004 1.606908,11.64755 3.040252,2.30442 9.022352,1.47392 11.338312,-1.55755 2.3005,-3.01121 1.5038,-8.92225 -1.46809,-11.27332 -0.0942,-0.0746 -0.19132,-0.14642 -0.29131,-0.21535 z m -1.78901,2.80613 c 1.63388,1.29252 2.07206,4.54187 0.80731,6.19738 -1.27328,1.66661 -4.56178,2.12357 -6.233226,0.85665 -1.717265,-1.30156 -2.214095,-4.70862 -0.883632,-6.40357 1.305528,-1.66319 4.651318,-1.96229 6.309548,-0.65046 z M 80.103638,182.72685 c -3.763751,0.096 -8.088905,3.98285 -8.227407,7.70599 -0.145698,3.91667 4.227703,8.39915 8.146275,8.47855 3.814117,0.0773 8.165586,-4.11078 8.257376,-7.92458 0.09117,-3.78832 -4.02776,-8.10216 -7.813993,-8.25738 -0.120083,-0.005 -0.240842,-0.006 -0.362251,-0.003 z m 0.202054,3.32176 c 2.081578,0.0853 4.345985,2.45653 4.295862,4.53926 -0.05047,2.09673 -2.442347,4.39935 -4.539257,4.35684 -2.154336,-0.0436 -4.558898,-2.50794 -4.478798,-4.66122 0.0786,-2.11292 2.609582,-4.32149 4.722193,-4.23488 z"
       style="display:inline;fill:#ffbf7f;fill-opacity:1;stroke:#ff7f00;stroke-width:0.26458332px;stroke-linecap:butt;stroke-linejoin:miter;stroke-opacity:1"
       id="path1002" />
    <path
       id="path1017"
       style="display:inline;fill:#969696;fill-opacity:1;stroke:#000000;stroke-width:0.26458332px;stroke-linecap:butt;stroke-linejoin:miter;stroke-opacity:1"
       d="m 65.873209,228.32127 c -0.982426,-3.27925 -5.368534,-5.78476 -8.795508,-4.8334 -3.426975,0.95136 -6.787567,6.30681 -5.682578,9.77072 1.104895,3.46393 6.256391,5.48076 9.571012,4.34887 3.314624,-1.13191 5.8895,-6.00695 4.907074,-9.28619 z m -3.05346,0.83347 c 0.546467,1.82392 -0.885815,4.53568 -2.72943,5.16524 -1.843618,0.62958 -4.708441,-0.49233 -5.323016,-2.41898 -0.614548,-1.92666 1.254182,-4.90541 3.160294,-5.43457 1.906085,-0.52915 4.345721,0.86437 4.892152,2.68831 z m 10.552516,-5.52703 c -3.422335,-0.079 -7.160599,3.31818 -7.314798,6.87141 -0.154199,3.55323 3.900659,8.40428 7.536489,8.42378 3.63583,0.0196 7.145854,-4.25653 7.093625,-7.7587 -0.05223,-3.50217 -3.892981,-7.45749 -7.315316,-7.53649 z m -0.150895,3.16156 c 1.903521,0.0439 4.039955,2.24407 4.069001,4.192 0.02905,1.94793 -1.923225,4.32585 -3.945496,4.31498 -2.022269,-0.0109 -4.277757,-2.70866 -4.191992,-4.68499 0.08576,-1.97632 2.164966,-3.86592 4.068487,-3.82199 z"
       inkscape:connector-curvature="0"
       inkscape:label="Paire de microtubules centraux" />
    <path
       inkscape:label="#Paire de microtubules centraux"
       inkscape:connector-curvature="0"
       d="m 65.873209,228.32127 c -0.982426,-3.27925 -5.368534,-5.78476 -8.795508,-4.8334 -3.426975,0.95136 -6.787567,6.30681 -5.682578,9.77072 1.104895,3.46393 6.256391,5.48076 9.571012,4.34887 3.314624,-1.13191 5.8895,-6.00695 4.907074,-9.28619 z m -3.05346,0.83347 c 0.546467,1.82392 -0.885815,4.53568 -2.72943,5.16524 -1.843618,0.62958 -4.708441,-0.49233 -5.323016,-2.41898 -0.614548,-1.92666 1.254182,-4.90541 3.160294,-5.43457 1.906085,-0.52915 4.345721,0.86437 4.892152,2.68831 z m 10.552516,-5.52703 c -3.422335,-0.079 -7.160599,3.31818 -7.314798,6.87141 -0.154199,3.55323 3.900659,8.40428 7.536489,8.42378 3.63583,0.0196 7.145854,-4.25653 7.093625,-7.7587 -0.05223,-3.50217 -3.892981,-7.45749 -7.315316,-7.53649 z m -0.150895,3.16156 c 1.903521,0.0439 4.039955,2.24407 4.069001,4.192 0.02905,1.94793 -1.923225,4.32585 -3.945496,4.31498 -2.022269,-0.0109 -4.277757,-2.70866 -4.191992,-4.68499 0.08576,-1.97632 2.164966,-3.86592 4.068487,-3.82199 z"
       style="fill:#ffbf7f;fill-opacity:1;stroke:#ff7f00;stroke-width:0.26458332px;stroke-linecap:butt;stroke-linejoin:miter;stroke-opacity:1"
       id="path1021" />
    <path
       id="path1047"
       style="fill:#d2d2d2;fill-opacity:1;stroke:#000000;stroke-width:0.26458332;stroke-linecap:butt;stroke-linejoin:miter;stroke-miterlimit:4;stroke-dasharray:none;stroke-opacity:1"
       d="M 61.185124,249.07927 C 50.156896,248.40397 43.571,236.80715 44.227441,228.35321 c 0.656444,-8.45394 10.488004,-15.37312 17.955193,-16.071 0.780227,2.67668 0.817497,4.10657 0.55417,6.4284 -6.313637,1.3466 -11.613969,5.15298 -11.970126,10.86178 -0.356161,5.70881 2.890503,10.31996 11.305123,12.96764 -0.340729,2.2102 -0.353617,3.68115 -0.886677,6.53924 z m 9.416464,-36.75687 c 11.028231,0.6753 17.614122,12.27212 16.957682,20.72606 -0.65644,8.45394 -10.488009,15.37312 -17.955193,16.071 -0.780242,-2.67667 -0.81749,-4.10657 -0.554173,-6.4284 6.313645,-1.3466 11.613969,-5.15298 11.970128,-10.86178 0.356159,-5.70881 -2.890508,-10.31996 -11.305121,-12.96764 0.340727,-2.21019 0.353614,-3.68115 0.886677,-6.53924 z"
       inkscape:connector-curvature="0"
       inkscape:label="Gaine interne" />
    <path
       inkscape:label="#Gaine interne"
       inkscape:connector-curvature="0"
       d="M 61.185124,249.07927 C 50.156896,248.40397 43.571,236.80715 44.227441,228.35321 c 0.656444,-8.45394 10.488004,-15.37312 17.955193,-16.071 0.780227,2.67668 0.817497,4.10657 0.55417,6.4284 -6.313637,1.3466 -11.613969,5.15298 -11.970126,10.86178 -0.356161,5.70881 2.890503,10.31996 11.305123,12.96764 -0.340729,2.2102 -0.353617,3.68115 -0.886677,6.53924 z m 9.416464,-36.75687 c 11.028231,0.6753 17.614122,12.27212 16.957682,20.72606 -0.65644,8.45394 -10.488009,15.37312 -17.955193,16.071 -0.780242,-2.67667 -0.81749,-4.10657 -0.554173,-6.4284 6.313645,-1.3466 11.613969,-5.15298 11.970128,-10.86178 0.356159,-5.70881 -2.890508,-10.31996 -11.305121,-12.96764 0.340727,-2.21019 0.353614,-3.68115 0.886677,-6.53924 z"
       style="fill:#ffbf7f;fill-opacity:1;stroke:#ff7f00;stroke-width:0.26458332;stroke-linecap:butt;stroke-linejoin:miter;stroke-miterlimit:4;stroke-dasharray:none;stroke-opacity:1"
       id="path1058" />
  </g>
</svg>
