<?xml version="1.0" encoding="UTF-8" standalone="no"?>
<!-- Created with Inkscape (http://www.inkscape.org/) -->

<svg
   xmlns:dc="http://purl.org/dc/elements/1.1/"
   xmlns:cc="http://creativecommons.org/ns#"
   xmlns:rdf="http://www.w3.org/1999/02/22-rdf-syntax-ns#"
   xmlns:svg="http://www.w3.org/2000/svg"
   xmlns="http://www.w3.org/2000/svg"
   xmlns:sodipodi="http://sodipodi.sourceforge.net/DTD/sodipodi-0.dtd"
   xmlns:inkscape="http://www.inkscape.org/namespaces/inkscape"
   width="250"
   height="500"
   viewBox="0 0 66.14583 132.29167"
   version="1.1"
   id="svg5894"
   inkscape:version="0.92.3 (2405546, 2018-03-11)"
   sodipodi:docname="histologie.svg">
  <defs
     id="defs5888" />
  <sodipodi:namedview
     id="base"
     pagecolor="#ffffff"
     bordercolor="#666666"
     borderopacity="1.0"
     inkscape:pageopacity="0"
     inkscape:pageshadow="2"
     inkscape:zoom="1.1935962"
     inkscape:cx="-84.013673"
     inkscape:cy="207.5645"
     inkscape:document-units="px"
     inkscape:current-layer="layer1"
     showgrid="false"
     units="px"
     inkscape:window-width="1877"
     inkscape:window-height="1025"
     inkscape:window-x="0"
     inkscape:window-y="27"
     inkscape:window-maximized="1"
     inkscape:pagecheckerboard="true" />
  <metadata
     id="metadata5891">
    <rdf:RDF>
      <cc:Work
         rdf:about="">
        <dc:format>image/svg+xml</dc:format>
        <dc:type
           rdf:resource="http://purl.org/dc/dcmitype/StillImage" />
        <dc:title />
      </cc:Work>
    </rdf:RDF>
  </metadata>
  <g
     inkscape:label="Base"
     inkscape:groupmode="layer"
     id="layer1"
     transform="translate(0,-164.70831)">
    <path
       style="opacity:1;fill:#c8c8c8;fill-opacity:1;stroke:#000000;stroke-width:0.52916664;stroke-linecap:butt;stroke-linejoin:miter;stroke-miterlimit:4;stroke-dasharray:none;stroke-dashoffset:0;stroke-opacity:1"
       d="m 19.063537,171.09196 c 4.459959,-3.53489 10.783016,-4.17574 15.358942,-0.46091 3.282682,5.59965 10.431027,2.70852 14.613261,6.31424 1.352521,3.50432 1.653753,7.8194 -0.131424,11.2287 -1.95701,5.01179 -2.314482,5.79253 -3.402275,10.93647 -1.677759,7.01675 -3.877834,20.56787 -3.085928,31.32233 -0.09436,5.52966 -0.14581,20.62956 0.527962,29.38746 -0.259221,5.1029 -0.531439,10.22074 1.642903,14.81952 1.845392,4.65933 2.090204,10.09994 -0.386549,14.56576 -2.747777,2.73428 -5.683568,3.78643 -9.443533,4.4675 -4.07937,-0.24452 -6.308083,0.15583 -9.913367,-2.34475 -3.797202,-3.04257 -4.89174,-7.79758 -4.308191,-12.36993 0.105559,-5.54037 0.845547,-10.38931 2.302546,-15.70689 0.585036,-5.85336 0.742992,-8.48056 0.555586,-13.62212 0.371052,-4.89441 0.396148,-11.2047 -0.353094,-16.06254 -0.440184,-9.05216 -1.181134,-19.57043 -1.998863,-26.99095 -0.316723,-6.81655 -0.642814,-14.25507 -2.74946,-19.92024 -0.81131,-5.60442 -2.580164,-11.3889 0.771484,-15.56365 z"
       id="path6041"
       inkscape:connector-curvature="0"
       sodipodi:nodetypes="cccccccccccccccccc"
       inkscape:label="Os" />
    <path
       id="path8178"
       style="fill:#dcdcdc;fill-opacity:1;stroke:#000000;stroke-width:0.26458332px;stroke-linecap:butt;stroke-linejoin:miter;stroke-opacity:1"
       d="m 42.954346,268.53574 -21.566125,1.18856 c -0.117623,0.68936 -0.223622,1.37956 -0.316776,2.07223 l 22.254971,-0.93948 c -0.165132,-0.76527 -0.2868,-1.5393 -0.37207,-2.32131 z m -22.790339,-73.7619 c 0.129453,0.96936 0.237498,1.95373 0.330212,2.94659 l 25.208796,0.46354 c 0.260797,-1.19893 0.489767,-2.16677 0.713652,-3.00292 z"
       inkscape:connector-curvature="0"
       inkscape:label="Cartilage de conjugaison" />
    <path
       transform="translate(0,1.2417322e-6)"
       inkscape:label="#Cartilage de conjugaison"
       inkscape:connector-curvature="0"
       d="m 42.954346,268.53574 -21.566125,1.18856 c -0.117623,0.68936 -0.223622,1.37956 -0.316776,2.07223 l 22.254971,-0.93948 c -0.165132,-0.76527 -0.2868,-1.5393 -0.37207,-2.32131 z m -22.790339,-73.7619 c 0.129453,0.96936 0.237498,1.95373 0.330212,2.94659 l 25.208796,0.46354 c 0.260797,-1.19893 0.489767,-2.16677 0.713652,-3.00292 z"
       style="display:inline;fill:#ffbf7f;fill-opacity:1;stroke:#ff7f00;stroke-width:0.52916666;stroke-linecap:butt;stroke-linejoin:miter;stroke-opacity:1;stroke-miterlimit:4;stroke-dasharray:none"
       id="path13" />
    <path
       style="fill:#dcdcdc;fill-opacity:1;stroke:#000000;stroke-width:0.26458332;stroke-linecap:butt;stroke-linejoin:miter;stroke-miterlimit:4;stroke-dasharray:0.26458331, 0.52916663;stroke-dashoffset:0;stroke-opacity:1"
       d="m 33.723385,204.23166 c -5.707612,0.22998 -9.367053,7.82355 -11.55795,15.00219 0.349602,4.75804 0.651209,9.73325 0.874882,14.33297 0.670877,4.34975 0.718517,9.85652 0.455269,14.47612 2.59711,8.26046 6.210432,16.53116 10.198343,16.14992 3.982852,-0.38076 6.883321,-7.94111 8.779309,-15.32413 -0.159573,-7.27923 -0.118401,-14.85902 -0.05736,-18.43608 -0.364363,-4.94822 -0.09143,-10.48414 0.468704,-15.70757 -1.577205,-5.63838 -4.213818,-10.32402 -8.636682,-10.49342 -0.176713,-0.007 -0.351579,-0.007 -0.524515,0 z"
       id="path6719"
       inkscape:connector-curvature="0"
       inkscape:label="Canal médullaire" />
    <path
       inkscape:label="#Canal médullaire"
       inkscape:connector-curvature="0"
       id="path834"
       d="m 33.723385,204.23166 c -5.707612,0.22998 -9.367053,7.82355 -11.55795,15.00219 0.349602,4.75804 0.651209,9.73325 0.874882,14.33297 0.670877,4.34975 0.718517,9.85652 0.455269,14.47612 2.59711,8.26046 6.210432,16.53116 10.198343,16.14992 3.982852,-0.38076 6.883321,-7.94111 8.779309,-15.32413 -0.159573,-7.27923 -0.118401,-14.85902 -0.05736,-18.43608 -0.364363,-4.94822 -0.09143,-10.48414 0.468704,-15.70757 -1.577205,-5.63838 -4.213818,-10.32402 -8.636682,-10.49342 -0.176713,-0.007 -0.351579,-0.007 -0.524515,0 z"
       style="display:inline;fill:#ffbf7f;fill-opacity:1;stroke:#ff7f00;stroke-width:0.52916666;stroke-linecap:butt;stroke-linejoin:miter;stroke-miterlimit:4;stroke-dasharray:none;stroke-dashoffset:0;stroke-opacity:1" />
    <path
       inkscape:label="Couche compacte"
       inkscape:connector-curvature="0"
       d="m 46.931883,193.4318 c -7.873656,7.69132 -9.872226,25.21254 -10.134783,35.73736 -0.263252,10.55269 -0.633542,28.9671 6.760826,43.00409 0.07665,0.1455 0.152975,0.28114 0.229445,0.41548 -1.290061,-4.04589 -1.064657,-8.41237 -0.84336,-12.76873 -0.673772,-8.7579 -0.622493,-23.85769 -0.528132,-29.38735 -0.791906,-10.75446 1.408356,-24.30537 3.086116,-31.32212 0.563554,-2.66493 0.9344,-4.16092 1.429888,-5.67873 z m -26.813868,1.01958 c 0.546776,3.93515 0.738103,8.1351 0.923457,12.12433 0.817729,7.42052 1.558661,17.93895 1.998845,26.99111 0.749242,4.85784 0.724002,11.16818 0.35295,16.06259 0.187406,5.14156 0.02951,7.76854 -0.555522,13.6219 -0.907905,3.31357 -1.536831,6.44559 -1.907894,9.6759 l 0.01809,1.46244 c 8.238698,-10.60317 8.26047,-25.11574 8.090462,-38.79194 -0.16864,-13.56624 -1.932361,-28.60856 -8.920385,-41.14633 z"
       style="display:inline;fill:#646464;fill-opacity:1;stroke:#000000;stroke-width:0.26458332px;stroke-linecap:butt;stroke-linejoin:miter;stroke-opacity:1"
       id="path830" />
    <path
       id="path6713"
       style="display:inline;fill:#ffbf7f;fill-opacity:1;stroke:#ff7f00;stroke-width:0.52916666;stroke-linecap:butt;stroke-linejoin:miter;stroke-opacity:1;stroke-miterlimit:4;stroke-dasharray:none"
       d="m 46.931883,193.4318 c -7.873656,7.69132 -9.872226,25.21254 -10.134783,35.73736 -0.263252,10.55269 -0.633542,28.9671 6.760826,43.00409 0.07665,0.1455 0.152975,0.28114 0.229445,0.41548 -1.290061,-4.04589 -1.064657,-8.41237 -0.84336,-12.76873 -0.673772,-8.7579 -0.622493,-23.85769 -0.528132,-29.38735 -0.791906,-10.75446 1.408356,-24.30537 3.086116,-31.32212 0.563554,-2.66493 0.9344,-4.16092 1.429888,-5.67873 z m -26.813868,1.01958 c 0.546776,3.93515 0.738103,8.1351 0.923457,12.12433 0.817729,7.42052 1.558661,17.93895 1.998845,26.99111 0.749242,4.85784 0.724002,11.16818 0.35295,16.06259 0.187406,5.14156 0.02951,7.76854 -0.555522,13.6219 -0.907905,3.31357 -1.536831,6.44559 -1.907894,9.6759 l 0.01809,1.46244 c 8.238698,-10.60317 8.26047,-25.11574 8.090462,-38.79194 -0.16864,-13.56624 -1.932361,-28.60856 -8.920385,-41.14633 z"
       inkscape:connector-curvature="0"
       inkscape:label="#Couche compacte" />
    <path
       id="path6701"
       style="display:inline;fill:#f0f0f0;fill-opacity:1;stroke:#000000;stroke-width:0.26458332px;stroke-linecap:butt;stroke-linejoin:miter;stroke-opacity:1"
       d="m 20.615659,283.91517 c 0.489879,2.83924 1.807901,5.47412 4.227649,7.41298 3.605283,2.50058 5.834236,2.10056 9.913606,2.34508 3.759965,-0.68107 6.695575,-1.73367 9.443352,-4.46794 0.479983,-0.86546 0.856782,-1.76749 1.140497,-2.69338 l -0.04392,-0.10232 c -3.526735,2.92588 -7.334772,5.96725 -12.34395,5.83892 -5.005007,-0.12822 -9.983656,-2.85646 -12.337231,-8.33334 z m 6.591845,-115.78725 c -2.879693,0.0252 -5.774852,1.08625 -8.144205,2.96416 -0.347038,0.43227 -0.636059,0.88241 -0.88005,1.34721 2.901994,-2.09683 6.828417,-3.15095 10.410217,-2.58796 4.463931,0.75107 6.302439,4.63683 11.040669,5.89732 2.021342,0.51594 4.277754,-0.33926 6.181537,0.84284 1.629478,1.02537 2.475605,1.54129 4.065899,3.66386 l 0.03979,-0.0811 c -0.189966,-1.11661 -0.49153,-2.20739 -0.885732,-3.22875 -4.182235,-3.60572 -11.330379,-0.71469 -14.613062,-6.31434 -2.144967,-1.74133 -4.674158,-2.52545 -7.215064,-2.50321 z"
       inkscape:connector-curvature="0"
       inkscape:label="Cartilage articulaire" />
    <path
       inkscape:label="#Cartilage articulaire"
       inkscape:connector-curvature="0"
       d="m 20.615659,283.91517 c 0.489879,2.83924 1.807901,5.47412 4.227649,7.41298 3.605283,2.50058 5.834236,2.10056 9.913606,2.34508 3.759965,-0.68107 6.695575,-1.73367 9.443352,-4.46794 0.479983,-0.86546 0.856782,-1.76749 1.140497,-2.69338 l -0.04392,-0.10232 c -3.526735,2.92588 -7.334772,5.96725 -12.34395,5.83892 -5.005007,-0.12822 -9.983656,-2.85646 -12.337231,-8.33334 z m 6.591845,-115.78725 c -2.879693,0.0252 -5.774852,1.08625 -8.144205,2.96416 -0.347038,0.43227 -0.636059,0.88241 -0.88005,1.34721 2.901994,-2.09683 6.828417,-3.15095 10.410217,-2.58796 4.463931,0.75107 6.302439,4.63683 11.040669,5.89732 2.021342,0.51594 4.277754,-0.33926 6.181537,0.84284 1.629478,1.02537 2.475605,1.54129 4.065899,3.66386 l 0.03979,-0.0811 c -0.189966,-1.11661 -0.49153,-2.20739 -0.885732,-3.22875 -4.182235,-3.60572 -11.330379,-0.71469 -14.613062,-6.31434 -2.144967,-1.74133 -4.674158,-2.52545 -7.215064,-2.50321 z"
       style="display:inline;fill:#ffbf7f;fill-opacity:1;stroke:#ff7f00;stroke-width:0.52916666;stroke-linecap:butt;stroke-linejoin:miter;stroke-opacity:1;stroke-miterlimit:4;stroke-dasharray:none"
       id="path832" />
  </g>
  <g
     inkscape:groupmode="layer"
     id="layer2"
     inkscape:label="Items" />
</svg>
